# Blender 4.0.2
# www.blender.org
mtllib expo.mtl
o Exposition_pallet
v 26.975533 1.269997 -20.004597
v 26.975533 -7.729995 -20.004597
v 26.975533 1.270000 19.995367
v 26.975533 -7.729992 19.995367
v 22.975538 1.269997 -20.004597
v 22.975538 -7.729995 -20.004597
v 22.975538 1.270000 19.995367
v 22.975538 -7.729992 19.995367
v -13.997979 1.269997 -20.004597
v -13.997979 -7.729995 -20.004597
v -13.997979 1.270000 19.995367
v -13.997979 -7.729992 19.995367
v -17.997976 1.269997 -20.004597
v -17.997976 -7.729995 -20.004597
v -17.997976 1.270000 19.995367
v -17.997976 -7.729992 19.995367
v -32.997967 1.270000 19.811512
v -32.997967 2.969999 19.811512
v -32.997967 1.270000 12.599171
v -32.997967 2.969998 12.599171
v 26.820311 1.270000 19.811512
v 26.820311 2.969999 19.811512
v 26.820311 1.270000 12.599171
v 26.820311 2.969998 12.599171
v -32.997967 1.269999 3.742880
v -32.997967 2.969998 3.742880
v -32.997967 1.269999 -3.757113
v -32.997967 2.969997 -3.757113
v 27.098211 1.269999 3.742880
v 27.098211 2.969998 3.742880
v 27.098211 1.269999 -3.757113
v 27.098211 2.969997 -3.757113
v -32.997967 1.269998 -12.509605
v -32.997967 2.969996 -12.509605
v -32.997967 1.269997 -19.868372
v -32.997967 2.969996 -19.868372
v 27.120361 1.269998 -12.509605
v 27.120361 2.969996 -12.509605
v 27.120361 1.269997 -19.868372
v 27.120361 2.969996 -19.868372
vn -0.0000 1.0000 -0.0000
vn -0.0000 -0.0000 1.0000
vn -1.0000 -0.0000 -0.0000
vn -0.0000 -1.0000 -0.0000
vn 1.0000 -0.0000 -0.0000
vn -0.0000 -0.0000 -1.0000
vt 0.765253 0.500000
vt 0.810708 0.500000
vt 0.810708 0.954545
vt 0.765253 0.954545
vt 0.912981 1.000000
vt 0.810708 1.000000
vt 0.912981 0.954545
vt 0.912981 0.500000
vt 0.617526 0.500000
vt 0.662981 0.500000
vt 0.662981 0.954545
vt 0.617526 0.954545
vt 0.434291 0.782026
vt 0.434291 0.679754
vt 0.479745 0.679754
vt 0.479745 0.782026
vt 0.719799 0.000000
vt 0.765253 0.000000
vt 0.765253 0.454545
vt 0.719799 0.454545
vt 0.867526 0.500000
vt 0.867526 0.454545
vt 0.867526 -0.000000
vt 0.912981 0.000000
vt 0.912981 0.454545
vt 0.617526 0.000000
vt 0.617526 0.454545
vt 0.516249 0.782026
vt 0.516249 0.679754
vt 0.561704 0.679754
vt 0.561704 0.782026
vt 0.057955 0.081959
vt 0.038637 0.081959
vt 0.038637 0.000000
vt 0.057955 0.000000
vt 0.617526 0.679754
vt 0.598208 0.679754
vt 0.598208 0.000000
vt 0.057955 0.843671
vt 0.038637 0.843671
vt 0.038637 0.761712
vt 0.057955 0.761712
vt 0.516249 0.000000
vt 0.434291 0.000000
vt 0.000000 0.768139
vt 0.019318 0.768139
vt 0.019318 0.853366
vt 0.000000 0.853366
vt 0.434291 0.682912
vt 0.414973 0.682912
vt 0.414973 -0.000000
vt 0.000000 0.000000
vt 0.019318 -0.000000
vt 0.019318 0.085227
vt 0.000000 0.085227
vt 0.310427 0.000000
vt 0.310427 0.682912
vt 0.225200 0.682912
vt 0.225200 0.000000
vt 0.395654 -0.000000
vt 0.395654 0.682912
vt 0.019319 0.766786
vt 0.038637 0.766786
vt 0.038637 0.850408
vt 0.019319 0.850408
vt 0.414973 0.683163
vt 0.395654 0.683163
vt 0.038637 0.083622
vt 0.019318 0.083622
vt 0.141577 0.683163
vt 0.141577 -0.000000
vt 0.225200 0.683163
vt 0.057955 0.683163
s 0
usemtl expo
f 1/1/1 5/2/1 7/3/1 3/4/1
f 4/5/2 3/6/2 7/3/2 8/7/2
f 8/7/3 7/3/3 5/2/3 6/8/3
f 6/9/4 2/10/4 4/11/4 8/12/4
f 2/10/5 1/1/5 3/4/5 4/11/5
f 6/13/6 5/14/6 1/15/6 2/16/6
f 9/17/1 13/18/1 15/19/1 11/20/1
f 12/21/2 11/1/2 15/19/2 16/22/2
f 16/22/3 15/19/3 13/18/3 14/23/3
f 14/23/4 10/24/4 12/25/4 16/22/4
f 10/26/5 9/17/5 11/20/5 12/27/5
f 14/28/6 13/29/6 9/30/6 10/31/6
f 17/32/3 18/33/3 20/34/3 19/35/3
f 19/36/6 20/37/6 24/38/6 23/26/6
f 23/39/5 24/40/5 22/41/5 21/42/5
f 21/42/2 22/41/2 18/33/2 17/32/2
f 19/43/4 23/29/4 21/14/4 17/44/4
f 24/38/1 20/37/1 18/29/1 22/43/1
f 25/45/3 26/46/3 28/47/3 27/48/3
f 27/49/6 28/50/6 32/51/6 31/44/6
f 31/52/5 32/53/5 30/54/5 29/55/5
f 29/55/2 30/54/2 26/46/2 25/45/2
f 27/56/4 31/57/4 29/58/4 25/59/4
f 32/60/1 28/61/1 26/57/1 30/56/1
f 33/62/3 34/63/3 36/64/3 35/65/3
f 35/66/6 36/67/6 40/60/6 39/51/6
f 39/53/5 40/34/5 38/68/5 37/69/5
f 37/69/2 38/68/2 34/63/2 33/62/2
f 35/70/4 39/71/4 37/59/4 33/72/4
f 40/71/1 36/70/1 34/73/1 38/35/1
